<svg xmlns="http://www.w3.org/2000/svg" viewBox="0 0 1200 630" width="1200" height="630">
  <defs>
    <linearGradient id="goldGrad" x1="0%" y1="0%" x2="100%" y2="100%">
      <stop offset="0%" style="stop-color:#D4A843;stop-opacity:1" />
      <stop offset="100%" style="stop-color:#B8912E;stop-opacity:1" />
    </linearGradient>
    <linearGradient id="bgGrad" x1="0%" y1="0%" x2="100%" y2="100%">
      <stop offset="0%" style="stop-color:#1B4332;stop-opacity:1" />
      <stop offset="100%" style="stop-color:#0F2A1E;stop-opacity:1" />
    </linearGradient>
  </defs>
  <rect width="1200" height="630" fill="url(#bgGrad)"/>
  <g opacity="0.03">
    <line x1="0" y1="0" x2="1200" y2="630" stroke="#D4A843" stroke-width="1"/>
    <line x1="200" y1="0" x2="1400" y2="630" stroke="#D4A843" stroke-width="1"/>
    <line x1="400" y1="0" x2="1600" y2="630" stroke="#D4A843" stroke-width="1"/>
    <line x1="-200" y1="0" x2="1000" y2="630" stroke="#D4A843" stroke-width="1"/>
    <line x1="-400" y1="0" x2="800" y2="630" stroke="#D4A843" stroke-width="1"/>
  </g>
  <rect x="0" y="0" width="1200" height="4" fill="url(#goldGrad)"/>
  <g transform="translate(460, 120) scale(1.8)">
    <path d="M 0,10 Q 0,0 10,0 L 42,0 Q 52,0 52,10 L 52,58 Q 52,80 26,100 Q 0,80 0,58 Z" fill="none" stroke="url(#goldGrad)" stroke-width="2"/>
    <path d="M 16,32 L 30,50 L 16,68" fill="none" stroke="url(#goldGrad)" stroke-width="4" stroke-linecap="round" stroke-linejoin="round"/>
    <path d="M 26,32 L 40,50 L 26,68" fill="none" stroke="url(#goldGrad)" stroke-width="4" stroke-linecap="round" stroke-linejoin="round" opacity="0.5"/>
    <circle cx="26" cy="18" r="5" fill="none" stroke="url(#goldGrad)" stroke-width="1"/>
    <polygon points="26,15.5 28,16.8 27.3,19 24.7,19 24,16.8" fill="url(#goldGrad)" opacity="0.6"/>
  </g>
  <text x="600" y="420" text-anchor="middle" font-family="'Inter', 'Helvetica Neue', Arial, sans-serif" font-weight="800" font-size="72" letter-spacing="6" fill="#FFFFFF">SAINTS</text>
  <text x="600" y="480" text-anchor="middle" font-family="'Inter', 'Helvetica Neue', Arial, sans-serif" font-weight="400" font-size="48" letter-spacing="14" fill="url(#goldGrad)">FORWARD</text>
  <text x="600" y="540" text-anchor="middle" font-family="'Inter', 'Helvetica Neue', Arial, sans-serif" font-weight="400" font-size="20" letter-spacing="2" fill="rgba(255,255,255,0.5)">Building the future of Spruce Grove soccer</text>
  <rect x="0" y="626" width="1200" height="4" fill="url(#goldGrad)"/>
</svg>
